<svg width="70" height="70" viewBox="0 0 70 70" fill="none" xmlns="http://www.w3.org/2000/svg">
<rect width="70" height="70" rx="25" fill="url(#paint0_linear_18_84)" fill-opacity="0.1"/>
<path d="M32.6735 31.3265C35.5914 31.3265 37.0503 31.3265 37.9511 32.4903C38.8518 33.6541 38.5403 34.8569 37.9172 37.2625C37.6421 38.3244 37.293 39.3681 36.8714 40.386C35.6817 43.2582 33.938 45.8679 31.7397 48.0662C29.5414 50.2645 26.9316 52.0083 24.0594 53.198C23.0416 53.6196 21.9978 53.9687 20.936 54.2437C18.5304 54.8668 17.3276 55.1784 16.1638 54.2776C15 53.3769 15 51.9179 15 49V37.3265C15 34.4981 15 33.0839 15.8787 32.2052C16.7574 31.3265 18.1716 31.3265 21 31.3265H32.6735Z" fill="url(#paint1_linear_18_84)" fill-opacity="0.4"/>
<path d="M26.4287 23C26.4287 19.1061 26.4287 17.1592 28.0226 15.959C29.6166 14.7588 31.1859 15.2101 34.3246 16.1127C35.3544 16.4088 36.3687 16.7632 37.3625 17.1748C40.829 18.6107 43.9787 20.7152 46.6318 23.3683C49.2849 26.0214 51.3894 29.1711 52.8253 32.6376C53.2369 33.6314 53.5913 34.6457 53.8874 35.6755C54.79 38.8142 55.2413 40.3835 54.0411 41.9774C52.8409 43.5714 50.894 43.5714 47.0001 43.5714L34.4287 43.5714C30.6575 43.5714 28.7719 43.5714 27.6003 42.3998C26.4287 41.2282 26.4287 39.3426 26.4287 35.5714L26.4287 23Z" fill="url(#paint2_linear_18_84)" fill-opacity="0.2"/>
<defs>
<linearGradient id="paint0_linear_18_84" x1="-3.53933" y1="7.12575" x2="78.1616" y2="24.4548" gradientUnits="userSpaceOnUse">
<stop stop-color="#14C1FA"/>
<stop offset="1" stop-color="#02BCF0"/>
</linearGradient>
<linearGradient id="paint1_linear_18_84" x1="13.803" y1="33.7364" x2="41.4337" y2="39.597" gradientUnits="userSpaceOnUse">
<stop stop-color="#14C1FA"/>
<stop offset="1" stop-color="#02BCF0"/>
</linearGradient>
<linearGradient id="paint2_linear_18_84" x1="29.3372" y1="45.016" x2="36.4103" y2="11.6687" gradientUnits="userSpaceOnUse">
<stop stop-color="#14C1FA"/>
<stop offset="1" stop-color="#02BCF0"/>
</linearGradient>
</defs>
</svg>
