<svg width="84" height="84" viewBox="0 0 84 84" fill="none" xmlns="http://www.w3.org/2000/svg">
<g filter="url(#filter0_d_1_1229)">
<rect x="4" width="76" height="76" rx="17" fill="url(#paint0_linear_1_1229)"/>
<path d="M48.9795 57.465C45.7302 57.465 42.9391 56.8455 40.6063 55.6064C38.2734 54.3674 36.4822 52.619 35.2324 50.3612C34.0105 48.1033 33.3995 45.4601 33.3995 42.4313C33.3995 39.4025 34.0105 36.773 35.2324 34.5427C36.4822 32.2849 38.2734 30.5365 40.6063 29.2975C42.9391 28.0584 45.7302 27.4389 48.9795 27.4389C50.9235 27.4389 52.7981 27.7418 54.6032 28.3475C56.0953 28.8255 57.3502 29.4351 58.3679 30.1763C58.7458 30.4516 58.8661 30.951 58.6991 31.3876L57.2026 35.299C56.9418 35.9809 56.1063 36.228 55.4788 35.8547C54.6593 35.3672 53.8398 34.9849 53.0202 34.7079C51.7983 34.2674 50.5486 34.0471 49.2711 34.0471C46.6883 34.0471 44.7443 34.7768 43.439 36.2361C42.1337 37.6679 41.4811 39.7329 41.4811 42.4313C41.4811 45.1572 42.1337 47.2498 43.439 48.7091C44.7443 50.1409 46.6883 50.8568 49.2711 50.8568C50.5486 50.8568 51.7983 50.6503 53.0202 50.2373C53.8405 49.9415 54.6607 49.5466 55.4809 49.0524C56.1062 48.6756 56.9418 48.923 57.2026 49.6049L58.6991 53.5163C58.8661 53.9529 58.7457 54.4521 58.3685 54.7283C57.3507 55.4738 56.0956 56.0969 54.6032 56.5977C52.7981 57.1759 50.9235 57.465 48.9795 57.465Z" fill="white"/>
<path d="M28.9512 17.4303C28.9512 16.8161 29.4491 16.3182 30.0633 16.3182H36.7357C37.3499 16.3182 37.8478 16.8161 37.8478 17.4303V24.1027C37.8478 24.7169 37.3499 25.2148 36.7357 25.2148H30.0633C29.4491 25.2148 28.9512 24.7169 28.9512 24.1027V17.4303Z" fill="white"/>
<path d="M21.1667 25.2148C21.1667 24.6006 21.6646 24.1027 22.2787 24.1027H28.9512C29.5654 24.1027 30.0633 24.6006 30.0633 25.2148V31.8873C30.0633 32.5014 29.5654 32.9993 28.9512 32.9993H22.2787C21.6646 32.9993 21.1667 32.5014 21.1667 31.8873V25.2148Z" fill="white"/>
</g>
<defs>
<filter id="filter0_d_1_1229" x="0" y="0" width="84" height="84" filterUnits="userSpaceOnUse" color-interpolation-filters="sRGB">
<feFlood flood-opacity="0" result="BackgroundImageFix"/>
<feColorMatrix in="SourceAlpha" type="matrix" values="0 0 0 0 0 0 0 0 0 0 0 0 0 0 0 0 0 0 127 0" result="hardAlpha"/>
<feOffset dy="4"/>
<feGaussianBlur stdDeviation="2"/>
<feComposite in2="hardAlpha" operator="out"/>
<feColorMatrix type="matrix" values="0 0 0 0 0 0 0 0 0 0 0 0 0 0 0 0 0 0 0.25 0"/>
<feBlend mode="normal" in2="BackgroundImageFix" result="effect1_dropShadow_1_1229"/>
<feBlend mode="normal" in="SourceGraphic" in2="effect1_dropShadow_1_1229" result="shape"/>
</filter>
<linearGradient id="paint0_linear_1_1229" x1="0.157303" y1="7.73653" x2="88.8612" y2="26.551" gradientUnits="userSpaceOnUse">
<stop stop-color="#14C1FA"/>
<stop offset="1" stop-color="#02BCF0"/>
</linearGradient>
</defs>
</svg>
