<svg width="190" height="16" viewBox="0 0 190 16" fill="none" xmlns="http://www.w3.org/2000/svg">
<path d="M3.952 12V2.432H0.08V0.719999H9.872V2.432H6V12H3.952ZM11.1695 12V0.719999H13.2175V5.424H19.0255V0.719999H21.0735V12H19.0255V7.136H13.2175V12H11.1695ZM28.2325 12.16C26.6858 12.16 25.5018 11.76 24.6805 10.96C23.8698 10.1493 23.4645 8.95467 23.4645 7.376V0.719999H25.5125V7.36C25.5125 8.37333 25.7418 9.136 26.2005 9.648C26.6698 10.1493 27.3472 10.4 28.2325 10.4C30.0352 10.4 30.9365 9.38667 30.9365 7.36V0.719999H32.9685V7.376C32.9685 8.95467 32.5685 10.1493 31.7685 10.96C30.9685 11.76 29.7898 12.16 28.2325 12.16ZM35.501 12L40.589 2.432H35.005V0.719999H42.861V2.256L37.757 12H35.501ZM48.9348 12.16C47.5374 12.16 46.4548 11.6693 45.6868 10.688C44.9294 9.70667 44.5508 8.33067 44.5508 6.56C44.5508 4.65067 44.9774 3.17333 45.8307 2.128C46.6948 1.08267 47.8841 0.559999 49.3988 0.559999C49.9961 0.559999 50.5881 0.672 51.1748 0.896C51.7614 1.10933 52.2628 1.41867 52.6788 1.824L52.0068 3.36C51.6121 2.99733 51.1908 2.73067 50.7428 2.56C50.2948 2.37867 49.8361 2.288 49.3668 2.288C48.4388 2.288 47.7294 2.61333 47.2388 3.264C46.7481 3.91467 46.5028 4.88533 46.5028 6.176V6.64C46.7268 6.05333 47.0894 5.59467 47.5908 5.264C48.0921 4.93333 48.6681 4.768 49.3188 4.768C49.9694 4.768 50.5454 4.92267 51.0468 5.232C51.5481 5.54133 51.9427 5.968 52.2308 6.512C52.5188 7.056 52.6628 7.68 52.6628 8.384C52.6628 9.10933 52.5028 9.76 52.1828 10.336C51.8734 10.9013 51.4361 11.3493 50.8708 11.68C50.3161 12 49.6708 12.16 48.9348 12.16ZM48.8228 10.528C49.3988 10.528 49.8628 10.3413 50.2148 9.968C50.5774 9.584 50.7588 9.08267 50.7588 8.464C50.7588 7.84533 50.5774 7.344 50.2148 6.96C49.8628 6.576 49.3988 6.384 48.8228 6.384C48.2468 6.384 47.7774 6.576 47.4148 6.96C47.0628 7.344 46.8868 7.84533 46.8868 8.464C46.8868 9.08267 47.0628 9.584 47.4148 9.968C47.7774 10.3413 48.2468 10.528 48.8228 10.528ZM53.2165 12L57.5205 6.256L53.3765 0.719999H55.7605L58.6885 4.768L61.6165 0.719999H64.0165L59.8725 6.256L64.1605 12H61.7605L58.6885 7.776L55.6325 12H53.2165ZM69.463 8.512V6.912H74.231V8.512H69.463ZM80.857 12V0.719999H85.785C86.969 0.719999 87.8863 0.981333 88.537 1.504C89.1877 2.016 89.513 2.73067 89.513 3.648C89.513 4.256 89.3583 4.77867 89.049 5.216C88.7397 5.65333 88.313 5.97333 87.769 6.176C88.409 6.35733 88.905 6.67733 89.257 7.136C89.6197 7.584 89.801 8.15467 89.801 8.848C89.801 9.85067 89.4597 10.6293 88.777 11.184C88.105 11.728 87.1663 12 85.961 12H80.857ZM82.825 5.504H85.433C86.8303 5.504 87.529 4.96533 87.529 3.888C87.529 2.81067 86.8303 2.272 85.433 2.272H82.825V5.504ZM82.825 10.448H85.705C87.113 10.448 87.817 9.88267 87.817 8.752C87.817 7.62133 87.113 7.056 85.705 7.056H82.825V10.448ZM91.5526 2.496V0.544H93.7926V2.496H91.5526ZM91.6806 12V4.176H93.6806V12H91.6806ZM99.3268 12.16C98.5161 12.16 97.8121 11.9947 97.2148 11.664C96.6174 11.3333 96.1534 10.864 95.8228 10.256C95.4921 9.63733 95.3268 8.912 95.3268 8.08C95.3268 7.248 95.4921 6.528 95.8228 5.92C96.1534 5.312 96.6174 4.84267 97.2148 4.512C97.8121 4.18133 98.5161 4.016 99.3268 4.016C100.137 4.016 100.841 4.18133 101.439 4.512C102.036 4.84267 102.5 5.312 102.831 5.92C103.161 6.528 103.327 7.248 103.327 8.08C103.327 8.912 103.161 9.63733 102.831 10.256C102.5 10.864 102.036 11.3333 101.439 11.664C100.841 11.9947 100.137 12.16 99.3268 12.16ZM99.3268 10.64C99.9241 10.64 100.404 10.4267 100.767 10C101.129 9.56267 101.311 8.92267 101.311 8.08C101.311 7.22667 101.129 6.592 100.767 6.176C100.404 5.74933 99.9241 5.536 99.3268 5.536C98.7294 5.536 98.2494 5.74933 97.8868 6.176C97.5241 6.592 97.3428 7.22667 97.3428 8.08C97.3428 8.92267 97.5241 9.56267 97.8868 10C98.2494 10.4267 98.7294 10.64 99.3268 10.64ZM107.698 12.16C106.77 12.16 106.082 11.9093 105.634 11.408C105.196 10.896 104.978 10.1493 104.978 9.168V0.719999H106.978V9.072C106.978 10.032 107.383 10.512 108.194 10.512C108.311 10.512 108.428 10.5067 108.546 10.496C108.663 10.4853 108.775 10.464 108.882 10.432L108.85 12.016C108.466 12.112 108.082 12.16 107.698 12.16ZM113.577 12.16C112.766 12.16 112.062 11.9947 111.465 11.664C110.867 11.3333 110.403 10.864 110.073 10.256C109.742 9.63733 109.577 8.912 109.577 8.08C109.577 7.248 109.742 6.528 110.073 5.92C110.403 5.312 110.867 4.84267 111.465 4.512C112.062 4.18133 112.766 4.016 113.577 4.016C114.387 4.016 115.091 4.18133 115.689 4.512C116.286 4.84267 116.75 5.312 117.081 5.92C117.411 6.528 117.577 7.248 117.577 8.08C117.577 8.912 117.411 9.63733 117.081 10.256C116.75 10.864 116.286 11.3333 115.689 11.664C115.091 11.9947 114.387 12.16 113.577 12.16ZM113.577 10.64C114.174 10.64 114.654 10.4267 115.017 10C115.379 9.56267 115.561 8.92267 115.561 8.08C115.561 7.22667 115.379 6.592 115.017 6.176C114.654 5.74933 114.174 5.536 113.577 5.536C112.979 5.536 112.499 5.74933 112.137 6.176C111.774 6.592 111.593 7.22667 111.593 8.08C111.593 8.92267 111.774 9.56267 112.137 10C112.499 10.4267 112.979 10.64 113.577 10.64ZM122.876 15.04C122.15 15.04 121.468 14.9547 120.828 14.784C120.198 14.624 119.644 14.3733 119.164 14.032L119.74 12.64C120.188 12.9387 120.668 13.1573 121.18 13.296C121.692 13.4453 122.204 13.52 122.716 13.52C124.145 13.52 124.86 12.832 124.86 11.456V10.384C124.636 10.8213 124.289 11.168 123.82 11.424C123.361 11.68 122.849 11.808 122.284 11.808C121.58 11.808 120.966 11.648 120.444 11.328C119.921 10.9973 119.516 10.5387 119.228 9.952C118.94 9.36533 118.796 8.68267 118.796 7.904C118.796 7.12533 118.94 6.448 119.228 5.872C119.516 5.28533 119.921 4.832 120.444 4.512C120.966 4.18133 121.58 4.016 122.284 4.016C122.87 4.016 123.393 4.14933 123.852 4.416C124.31 4.672 124.646 5.01867 124.86 5.456V4.176H126.812V11.216C126.812 12.4853 126.476 13.44 125.804 14.08C125.132 14.72 124.156 15.04 122.876 15.04ZM122.828 10.288C123.446 10.288 123.937 10.0747 124.3 9.648C124.662 9.22133 124.844 8.64 124.844 7.904C124.844 7.168 124.662 6.592 124.3 6.176C123.937 5.74933 123.446 5.536 122.828 5.536C122.209 5.536 121.718 5.74933 121.356 6.176C120.993 6.592 120.812 7.168 120.812 7.904C120.812 8.64 120.993 9.22133 121.356 9.648C121.718 10.0747 122.209 10.288 122.828 10.288ZM128.756 2.496V0.544H130.996V2.496H128.756ZM128.884 12V4.176H130.884V12H128.884ZM145.578 15.408L144.026 12.896C143.717 12.4053 143.21 12.16 142.506 12.16C141.418 12.16 140.469 11.92 139.658 11.44C138.848 10.96 138.218 10.288 137.77 9.424C137.322 8.54933 137.098 7.52533 137.098 6.352C137.098 5.168 137.322 4.144 137.77 3.28C138.218 2.416 138.848 1.74933 139.658 1.28C140.469 0.8 141.424 0.559999 142.522 0.559999C143.621 0.559999 144.576 0.8 145.386 1.28C146.197 1.74933 146.826 2.416 147.274 3.28C147.722 4.144 147.946 5.16267 147.946 6.336C147.946 7.616 147.68 8.71467 147.146 9.632C146.624 10.5493 145.898 11.2213 144.97 11.648C145.429 11.7973 145.824 12.1547 146.154 12.72L147.322 14.576L145.578 15.408ZM142.522 10.4C143.557 10.4 144.362 10.0427 144.938 9.328C145.514 8.61333 145.802 7.62133 145.802 6.352C145.802 5.072 145.514 4.08 144.938 3.376C144.373 2.672 143.568 2.32 142.522 2.32C141.488 2.32 140.682 2.672 140.106 3.376C139.53 4.08 139.242 5.072 139.242 6.352C139.242 7.62133 139.53 8.61333 140.106 9.328C140.682 10.0427 141.488 10.4 142.522 10.4ZM152.669 12.16C150.749 12.16 149.789 11.0827 149.789 8.928V4.176H151.789V8.96C151.789 9.51467 151.901 9.92533 152.125 10.192C152.349 10.4587 152.706 10.592 153.197 10.592C153.73 10.592 154.168 10.4107 154.509 10.048C154.85 9.67467 155.021 9.184 155.021 8.576V4.176H157.021V12H155.069V10.832C154.546 11.7173 153.746 12.16 152.669 12.16ZM158.975 2.496V0.544H161.215V2.496H158.975ZM159.103 12V4.176H161.103V12H159.103ZM162.925 12V10.704L166.957 5.68H162.925V4.176H169.133V5.472L165.101 10.496H169.309V12H162.925ZM175.263 12V0.719999H177.311V12H175.263ZM178.435 12L182.739 6.256L178.595 0.719999H180.979L183.907 4.768L186.835 0.719999H189.235L185.091 6.256L189.379 12H186.979L183.907 7.776L180.851 12H178.435Z" fill="white"/>
</svg>
