<svg width="40" height="40" viewBox="0 0 40 40" fill="none" xmlns="http://www.w3.org/2000/svg">
<path d="M17.6735 16.3265C20.5914 16.3265 22.0503 16.3265 22.9511 17.4903C23.8518 18.6541 23.5403 19.8569 22.9172 22.2625C22.6421 23.3244 22.293 24.3681 21.8714 25.386C20.6817 28.2582 18.938 30.8679 16.7397 33.0662C14.5414 35.2645 11.9316 37.0083 9.05944 38.198C8.04158 38.6196 6.99783 38.9687 5.936 39.2437C3.53039 39.8668 2.32759 40.1784 1.16379 39.2776C0 38.3769 0 36.9179 0 34V22.3265C0 19.4981 0 18.0839 0.87868 17.2052C1.75736 16.3265 3.17157 16.3265 6 16.3265H17.6735Z" fill="url(#paint0_linear_30_679)" fill-opacity="0.4"/>
<path d="M11.4286 7.99999C11.4286 4.10615 11.4286 2.15923 13.0225 0.959053C14.6164 -0.241129 16.1858 0.210146 19.3245 1.11269C20.3542 1.40881 21.3685 1.76319 22.3624 2.17485C25.8288 3.6107 28.9785 5.71526 31.6316 8.36836C34.2847 11.0215 36.3893 14.1712 37.8251 17.6376C38.2368 18.6314 38.5912 19.6457 38.8873 20.6755C39.7898 23.8142 40.2411 25.3835 39.0409 26.9775C37.8407 28.5714 35.8938 28.5714 32 28.5714L19.4286 28.5714C15.6573 28.5714 13.7717 28.5714 12.6001 27.3998C11.4286 26.2283 11.4286 24.3426 11.4286 20.5714L11.4286 7.99999Z" fill="url(#paint1_linear_30_679)" fill-opacity="0.2"/>
<defs>
<linearGradient id="paint0_linear_30_679" x1="-1.19697" y1="18.7364" x2="26.4337" y2="24.597" gradientUnits="userSpaceOnUse">
<stop stop-color="#14C1FA"/>
<stop offset="1" stop-color="#02BCF0"/>
</linearGradient>
<linearGradient id="paint1_linear_30_679" x1="14.337" y1="30.016" x2="21.4101" y2="-3.33128" gradientUnits="userSpaceOnUse">
<stop stop-color="#14C1FA"/>
<stop offset="1" stop-color="#02BCF0"/>
</linearGradient>
</defs>
</svg>
