<svg width="16" height="16" viewBox="0 0 16 16" fill="none" xmlns="http://www.w3.org/2000/svg">
<circle cx="8" cy="8" r="8" fill="#FF9F41"/>
<path d="M6.70801 7.27832H7.69238C8.0752 7.27832 8.39193 7.21224 8.64258 7.08008C8.89779 6.94792 9.08691 6.76562 9.20996 6.5332C9.33301 6.30078 9.39453 6.03418 9.39453 5.7334C9.39453 5.41895 9.33757 5.15007 9.22363 4.92676C9.11426 4.69889 8.94564 4.52344 8.71777 4.40039C8.49447 4.27734 8.20964 4.21582 7.86328 4.21582C7.57161 4.21582 7.30729 4.27507 7.07031 4.39355C6.83789 4.50749 6.65332 4.67155 6.5166 4.88574C6.37988 5.09538 6.31152 5.34603 6.31152 5.6377H4.65723C4.65723 5.10905 4.79622 4.63965 5.07422 4.22949C5.35221 3.81934 5.73047 3.49805 6.20898 3.26562C6.69206 3.02865 7.23438 2.91016 7.83594 2.91016C8.47852 2.91016 9.03906 3.01725 9.51758 3.23145C10.0007 3.44108 10.3766 3.75553 10.6455 4.1748C10.9144 4.59408 11.0488 5.11361 11.0488 5.7334C11.0488 6.01595 10.9827 6.30306 10.8506 6.59473C10.7184 6.88639 10.5225 7.15299 10.2627 7.39453C10.0029 7.63151 9.67936 7.8252 9.29199 7.97559C8.90462 8.12142 8.45573 8.19434 7.94531 8.19434H6.70801V7.27832ZM6.70801 8.56348V7.66113H7.94531C8.52865 7.66113 9.02539 7.72949 9.43555 7.86621C9.85026 8.00293 10.1875 8.19206 10.4473 8.43359C10.707 8.67057 10.8962 8.94173 11.0146 9.24707C11.1377 9.55241 11.1992 9.87598 11.1992 10.2178C11.1992 10.6826 11.1149 11.0973 10.9463 11.4619C10.7822 11.8219 10.5475 12.1273 10.2422 12.3779C9.93685 12.6286 9.5791 12.8177 9.16895 12.9453C8.76335 13.0729 8.32129 13.1367 7.84277 13.1367C7.41439 13.1367 7.00423 13.0775 6.6123 12.959C6.22038 12.8405 5.86947 12.665 5.55957 12.4326C5.24967 12.1956 5.00358 11.9017 4.82129 11.5508C4.64355 11.1953 4.55469 10.7852 4.55469 10.3203H6.20215C6.20215 10.6165 6.27051 10.8786 6.40723 11.1064C6.5485 11.3298 6.74447 11.5052 6.99512 11.6328C7.25033 11.7604 7.54199 11.8242 7.87012 11.8242C8.21647 11.8242 8.51497 11.7627 8.76562 11.6396C9.01628 11.5166 9.20768 11.3343 9.33984 11.0928C9.47656 10.8512 9.54492 10.5596 9.54492 10.2178C9.54492 9.8304 9.46973 9.51595 9.31934 9.27441C9.16895 9.03288 8.95475 8.85514 8.67676 8.74121C8.39876 8.62272 8.07064 8.56348 7.69238 8.56348H6.70801Z" fill="white"/>
</svg>
