<svg width="60" height="65" viewBox="0 0 60 65" fill="none" xmlns="http://www.w3.org/2000/svg">
<path d="M43.6456 64.9497C38.5502 64.9497 34.1733 63.9782 30.515 62.0351C26.8568 60.0921 24.0477 57.3503 22.0879 53.8096C20.1717 50.269 19.2136 46.1239 19.2136 41.3742C19.2136 36.6246 20.1717 32.501 22.0879 29.0036C24.0477 25.4629 26.8568 22.7211 30.515 20.7781C34.1733 18.835 38.5502 17.8635 43.6456 17.8635C46.6942 17.8635 49.6339 18.3385 52.4647 19.2884C54.8045 20.0379 56.7724 20.9938 58.3684 22.1563C58.9609 22.5879 59.1496 23.3711 58.8877 24.0558L56.5411 30.1895C56.132 31.2588 54.8217 31.6464 53.8378 31.061C52.5526 30.2965 51.2675 29.697 49.9823 29.2626C48.0661 28.5718 46.1063 28.2264 44.1029 28.2264C40.0527 28.2264 37.0041 29.3706 34.9572 31.6591C32.9103 33.9043 31.8869 37.1427 31.8869 41.3742C31.8869 45.6489 32.9103 48.9305 34.9572 51.2189C37.0041 53.4642 40.0527 54.5868 44.1029 54.5868C46.1063 54.5868 48.0661 54.263 49.9823 53.6153C51.2686 53.1516 52.5548 52.5322 53.841 51.7572C54.8217 51.1664 56.132 51.5544 56.5411 52.6237L58.8877 58.7574C59.1496 59.4421 58.9608 60.225 58.3693 60.6581C56.7732 61.8271 54.805 62.8042 52.4647 63.5896C49.6339 64.4963 46.6942 64.9497 43.6456 64.9497Z" fill="url(#paint0_linear_128_258)"/>
<path d="M12.2378 2.16819C12.2378 1.20504 13.0186 0.424255 13.9818 0.424255H24.4453C25.4085 0.424255 26.1893 1.20504 26.1893 2.16819V12.6318C26.1893 13.5949 25.4085 14.3757 24.4453 14.3757H13.9818C13.0186 14.3757 12.2378 13.5949 12.2378 12.6318V2.16819Z" fill="url(#paint1_linear_128_258)"/>
<path d="M0.030304 14.3757C0.030304 13.4126 0.811089 12.6318 1.77424 12.6318H12.2378C13.201 12.6318 13.9818 13.4126 13.9818 14.3757V24.8393C13.9818 25.8024 13.201 26.5832 12.2378 26.5832H1.77424C0.811089 26.5832 0.030304 25.8024 0.030304 24.8393V14.3757Z" fill="url(#paint2_linear_128_258)"/>
<defs>
<linearGradient id="paint0_linear_128_258" x1="17.2017" y1="22.6567" x2="64.221" y2="31.0843" gradientUnits="userSpaceOnUse">
<stop stop-color="#14C1FA"/>
<stop offset="1" stop-color="#02BCF0"/>
</linearGradient>
<linearGradient id="paint1_linear_128_258" x1="11.5324" y1="1.84446" x2="27.8159" y2="5.29826" gradientUnits="userSpaceOnUse">
<stop stop-color="#14C1FA"/>
<stop offset="1" stop-color="#02BCF0"/>
</linearGradient>
<linearGradient id="paint2_linear_128_258" x1="-0.675107" y1="14.052" x2="15.6084" y2="17.5058" gradientUnits="userSpaceOnUse">
<stop stop-color="#14C1FA"/>
<stop offset="1" stop-color="#02BCF0"/>
</linearGradient>
</defs>
</svg>
