<svg width="66" height="69" viewBox="0 0 66 69" fill="none" xmlns="http://www.w3.org/2000/svg">
<g filter="url(#filter0_d_30_1451)">
<path fill-rule="evenodd" clip-rule="evenodd" d="M29 26C29 23.7909 30.7909 22 33 22C35.2091 22 37 23.7909 37 26V27H29V26ZM27 27V26C27 22.6863 29.6863 20 33 20C36.3137 20 39 22.6863 39 26V27H40C40.5523 27 41 27.4477 41 28V38C41 38.5523 40.5523 39 40 39H26C25.4477 39 25 38.5523 25 38V28C25 27.4477 25.4477 27 26 27H27ZM27 37V29H39V37H27Z" fill="url(#paint0_linear_30_1451)"/>
</g>
<defs>
<filter id="filter0_d_30_1451" x="-4" y="-2" width="74" height="74" filterUnits="userSpaceOnUse" color-interpolation-filters="sRGB">
<feFlood flood-opacity="0" result="BackgroundImageFix"/>
<feColorMatrix in="SourceAlpha" type="matrix" values="0 0 0 0 0 0 0 0 0 0 0 0 0 0 0 0 0 0 127 0" result="hardAlpha"/>
<feOffset dy="5"/>
<feGaussianBlur stdDeviation="12.5"/>
<feColorMatrix type="matrix" values="0 0 0 0 0.85 0 0 0 0 0.85 0 0 0 0 0.85 0 0 0 0.15 0"/>
<feBlend mode="normal" in2="BackgroundImageFix" result="effect1_dropShadow_30_1451"/>
<feBlend mode="normal" in="SourceGraphic" in2="effect1_dropShadow_30_1451" result="shape"/>
</filter>
<linearGradient id="paint0_linear_30_1451" x1="24.191" y1="21.9341" x2="43.1023" y2="25.312" gradientUnits="userSpaceOnUse">
<stop stop-color="#14C1FA"/>
<stop offset="1" stop-color="#02BCF0"/>
</linearGradient>
</defs>
</svg>
