<svg width="16" height="16" viewBox="0 0 16 16" fill="none" xmlns="http://www.w3.org/2000/svg">
<circle cx="8" cy="8" r="8" fill="#3ED4A1"/>
<path d="M11.459 13H4.7666V11.8584L8.08203 8.24219C8.56055 7.70898 8.90007 7.26465 9.10059 6.90918C9.30566 6.54915 9.4082 6.18913 9.4082 5.8291C9.4082 5.35514 9.27376 4.97233 9.00488 4.68066C8.74056 4.389 8.38281 4.24316 7.93164 4.24316C7.39388 4.24316 6.97689 4.40723 6.68066 4.73535C6.38444 5.06348 6.23633 5.51237 6.23633 6.08203H4.5752C4.5752 5.47591 4.71191 4.93132 4.98535 4.44824C5.26335 3.96061 5.65755 3.58236 6.16797 3.31348C6.68294 3.0446 7.27539 2.91016 7.94531 2.91016C8.91146 2.91016 9.67253 3.15397 10.2285 3.6416C10.7891 4.12467 11.0693 4.7946 11.0693 5.65137C11.0693 6.14811 10.9281 6.66992 10.6455 7.2168C10.3675 7.75911 9.90951 8.37663 9.27148 9.06934L6.83789 11.6738H11.459V13Z" fill="white"/>
</svg>
